<?xml version="1.0" encoding="UTF-8"?>
<svg width="24" height="24" viewBox="0 0 24 24" fill="none" xmlns="http://www.w3.org/2000/svg">
<path fill-rule="evenodd" clip-rule="evenodd" d="M5.55165 3.17585C6.49306 2.50147 7.74037 2.25 9.04039 2.25H14.957C16.3001 2.25 17.557 2.51984 18.4932 3.23665C19.4644 3.98031 19.9774 5.11691 19.9774 6.58611L19.9823 20.1114C19.9823 20.3953 19.9081 20.6712 19.7706 20.9143C19.3271 21.701 18.3307 21.9766 17.546 21.5349L17.545 21.5343L12.025 18.4163L6.45027 21.5414L6.44939 21.5418C6.2056 21.6781 5.93083 21.75 5.65055 21.75C4.74794 21.75 4.01673 21.0181 4.01807 20.1159V6.41514C4.01807 4.97354 4.56934 3.87954 5.55165 3.17585ZM6.42518 4.39526C5.88188 4.78446 5.51807 5.39802 5.51807 6.41514L5.51807 20.118C5.51792 20.1904 5.57659 20.25 5.65055 20.25C5.67371 20.25 5.69653 20.2442 5.71729 20.2326L11.6597 16.9015C11.8883 16.7733 12.1672 16.7738 12.3953 16.9027L18.2818 20.2277C18.3472 20.2644 18.4285 20.2407 18.4639 20.1777L18.4648 20.1761C18.4769 20.1548 18.4823 20.1331 18.4823 20.1118L18.4774 6.58665C18.4774 5.49317 18.1152 4.8364 17.5813 4.42762C17.0123 3.99194 16.1339 3.75 14.957 3.75H9.04039C7.89826 3.75 7.0094 3.97675 6.42518 4.39526Z" fill="currentColor"></path>
</svg>
