<?xml version="1.0" encoding="UTF-8"?>
<svg width="24" height="24" viewBox="0 0 24 24" fill="none" xmlns="http://www.w3.org/2000/svg">
<path d="M14.9624 3.87898L15.7806 5.66377H18.42C19.2315 5.66377 19.8894 6.32166 19.8894 7.1332V8.2214C19.8894 8.77625 19.4396 9.22605 18.8848 9.22605H5.11501C4.56015 9.22605 4.11035 8.77625 4.11035 8.2214V7.1332C4.11035 6.32166 4.76823 5.66377 5.57978 5.66377H8.2192L9.0374 3.87898C9.28294 3.34338 9.8181 3 10.4073 3H13.5925C14.1817 3 14.7168 3.34338 14.9624 3.87898Z" stroke="#000000" stroke-width="1.5" stroke-linecap="round" stroke-linejoin="round"></path>
<path d="M18.3504 9.30078V17.9865C18.3504 19.6511 17.0177 21.0005 15.3738 21.0005H8.62696C6.98305 21.0005 5.65039 19.6511 5.65039 17.9865V9.30078" stroke="#000000" stroke-width="1.5" stroke-linecap="round" stroke-linejoin="round"></path>
</svg>