<?xml version="1.0" encoding="UTF-8"?>
<svg width="24" height="24" viewBox="0 0 24 24" fill="none" xmlns="http://www.w3.org/2000/svg">
<path d="M6.74026 19.3407C3.47519 19.0384 1.81771 14.9873 3.96659 12.4958C5.08661 11.1972 6.80744 10.7845 8.17508 9.83821C9.46691 8.94372 10.4756 7.5041 9.95254 5.88117C9.56096 4.669 8.43326 3.95975 7.15583 3.88489" stroke="#000000" stroke-width="1.5" stroke-linecap="round" stroke-linejoin="round"></path>
<path d="M15.1577 8.72144L19.3972 11.8369" stroke="#000000" stroke-width="1.5" stroke-linecap="round" stroke-linejoin="round"></path>
<path d="M16.2097 7.21585C17.1707 5.90967 18.5034 6.60915 19.5118 7.35106C20.5202 8.09298 21.5846 9.15716 20.6236 10.4633L14.0888 19.0127C13.7968 19.4096 13.3583 19.6735 12.8709 19.7456L10.4195 20.1085C10.0849 20.158 9.773 19.9285 9.72072 19.5943L9.33765 17.1461C9.26148 16.6592 9.38289 16.1621 9.67492 15.7652L16.2097 7.21585Z" stroke="#000000" stroke-width="1.5" stroke-linecap="round" stroke-linejoin="round"></path>
</svg>